<svg width="18" height="15" viewBox="0 0 18 15" fill="none" xmlns="http://www.w3.org/2000/svg">
<path fill-rule="evenodd" clip-rule="evenodd" d="M10.2901 14.7076C10.1001 14.5076 10.0001 14.2576 10.0001 13.9976C10.0001 13.7376 10.1001 13.4876 10.2901 13.2876L14.5901 8.99762L1.00006 8.99762C0.45006 8.99762 5.94579e-05 8.54762 5.94339e-05 7.99762C5.94099e-05 7.44762 0.45006 6.99762 1.00006 6.99762L14.5901 6.99762L10.2901 2.70762C9.90006 2.31762 9.90006 1.67762 10.2901 1.28762C10.6801 0.897618 11.3201 0.897617 11.7101 1.28762L17.7101 7.28762C17.8001 7.37762 17.8701 7.48762 17.9201 7.60762C17.9401 7.65762 17.9601 7.69762 17.9601 7.74762C18.0101 7.90762 18.0101 8.08762 17.9601 8.24762C17.9601 8.29762 17.9401 8.33762 17.9201 8.38762C17.8701 8.50762 17.8001 8.61762 17.7101 8.70762L11.7101 14.7076C11.3201 15.0976 10.6801 15.0976 10.2901 14.7076Z" fill="#313037"/>
</svg>
